# MagicaVoxel @ Ephtracy

# group
o 

# material
mtllib river_curve.mtl
usemtl palette

# normals
vn -1 0 0
vn 1 0 0
vn 0 0 1
vn 0 0 -1
vn 0 -1 0
vn 0 1 0

# texcoords
vt 0.0449219 0.5
vt 0.634766 0.5
vt 0.896484 0.5

# verts
v -0.4 0 0.4
v -0.4 0 -0.4
v -0.4 0.2 0.4
v -0.4 0.2 -0.4
v 0.4 0 0.4
v 0.4 0 0.3
v 0.4 0 0.2
v 0.4 0 -0.2
v 0.4 0 -0.3
v 0.4 0 -0.4
v 0.4 0.2 0.4
v 0.4 0.2 0.3
v 0.4 0.2 0.2
v 0.4 0.2 -0.2
v 0.4 0.2 -0.3
v 0.4 0.2 -0.4
v -0.4 0 0.4
v -0.4 0.2 0.4
v -0.3 0 0.4
v -0.3 0.2 0.4
v -0.2 0 0.4
v -0.2 0.2 0.4
v 0.2 0 0.4
v 0.2 0.2 0.4
v 0.3 0 0.4
v 0.3 0.2 0.4
v 0.4 0 0.4
v 0.4 0.2 0.4
v -0.4 0 -0.4
v -0.4 0.2 -0.4
v 0.4 0 -0.4
v 0.4 0.2 -0.4
v -0.4 0 0.4
v -0.3 0 0.4
v -0.2 0 0.4
v 0.2 0 0.4
v 0.3 0 0.4
v 0.4 0 0.4
v 0.3 0 0.3
v 0.4 0 0.3
v 0.2 0 0.2
v 0.4 0 0.2
v -0.2 0 -0.2
v 0.4 0 -0.2
v -0.3 0 -0.3
v 0.4 0 -0.3
v -0.4 0 -0.4
v 0.4 0 -0.4
v -0.4 0.2 0.4
v -0.3 0.2 0.4
v -0.2 0.2 0.4
v 0.2 0.2 0.4
v 0.3 0.2 0.4
v 0.4 0.2 0.4
v 0.3 0.2 0.3
v 0.4 0.2 0.3
v 0.2 0.2 0.2
v 0.4 0.2 0.2
v -0.2 0.2 -0.2
v 0.4 0.2 -0.2
v -0.3 0.2 -0.3
v 0.4 0.2 -0.3
v -0.4 0.2 -0.4
v 0.4 0.2 -0.4

# faces
f 3/3/1 2/3/1 1/3/1
f 4/3/1 2/3/1 3/3/1
f 5/3/2 6/3/2 11/3/2
f 6/1/2 7/1/2 12/1/2
f 11/3/2 6/3/2 12/3/2
f 7/2/2 8/2/2 13/2/2
f 12/1/2 7/1/2 13/1/2
f 8/1/2 9/1/2 14/1/2
f 13/2/2 8/2/2 14/2/2
f 9/3/2 10/3/2 15/3/2
f 14/1/2 9/1/2 15/1/2
f 15/3/2 10/3/2 16/3/2
f 19/3/3 18/3/3 17/3/3
f 20/3/3 18/3/3 19/3/3
f 21/1/3 20/1/3 19/1/3
f 22/1/3 20/1/3 21/1/3
f 23/2/3 22/2/3 21/2/3
f 24/2/3 22/2/3 23/2/3
f 25/1/3 24/1/3 23/1/3
f 26/1/3 24/1/3 25/1/3
f 27/3/3 26/3/3 25/3/3
f 28/3/3 26/3/3 27/3/3
f 29/3/4 30/3/4 31/3/4
f 31/3/4 30/3/4 32/3/4
f 39/1/5 37/1/5 36/1/5
f 39/3/5 38/3/5 37/3/5
f 40/3/5 38/3/5 39/3/5
f 41/2/5 36/2/5 35/2/5
f 41/1/5 39/1/5 36/1/5
f 41/1/5 40/1/5 39/1/5
f 42/1/5 40/1/5 41/1/5
f 43/1/5 35/1/5 34/1/5
f 43/2/5 41/2/5 35/2/5
f 43/2/5 42/2/5 41/2/5
f 44/2/5 42/2/5 43/2/5
f 45/3/5 34/3/5 33/3/5
f 45/1/5 43/1/5 34/1/5
f 45/1/5 44/1/5 43/1/5
f 46/1/5 44/1/5 45/1/5
f 47/3/5 45/3/5 33/3/5
f 47/3/5 46/3/5 45/3/5
f 48/3/5 46/3/5 47/3/5
f 52/1/6 53/1/6 55/1/6
f 53/3/6 54/3/6 55/3/6
f 55/3/6 54/3/6 56/3/6
f 51/2/6 52/2/6 57/2/6
f 52/1/6 55/1/6 57/1/6
f 55/1/6 56/1/6 57/1/6
f 57/1/6 56/1/6 58/1/6
f 50/1/6 51/1/6 59/1/6
f 51/2/6 57/2/6 59/2/6
f 57/2/6 58/2/6 59/2/6
f 59/2/6 58/2/6 60/2/6
f 49/3/6 50/3/6 61/3/6
f 50/1/6 59/1/6 61/1/6
f 59/1/6 60/1/6 61/1/6
f 61/1/6 60/1/6 62/1/6
f 49/3/6 61/3/6 63/3/6
f 61/3/6 62/3/6 63/3/6
f 63/3/6 62/3/6 64/3/6
