# MagicaVoxel @ Ephtracy

# group
o 

# material
mtllib coast_angle.mtl
usemtl palette

# normals
vn -1 0 0
vn 1 0 0
vn 0 0 1
vn 0 0 -1
vn 0 -1 0
vn 0 1 0

# texcoords
vt 0.0449219 0.5
vt 0.634766 0.5
vt 0.896484 0.5

# verts
v -0.4 0 0.4
v -0.4 0 -0.4
v -0.4 0.2 0.4
v -0.4 0.2 -0.4
v 0.4 0 0.4
v 0.4 0 0.1
v 0.4 0 0
v 0.4 0 -0.4
v 0.4 0.2 0.4
v 0.4 0.2 0.1
v 0.4 0.2 0
v 0.4 0.2 -0.4
v -0.4 0 0.4
v -0.4 0.2 0.4
v 0.4 0 0.4
v 0.4 0.2 0.4
v -0.4 0 -0.4
v -0.4 0.2 -0.4
v -0.1 0 -0.4
v -0.1 0.2 -0.4
v 0 0 -0.4
v 0 0.2 -0.4
v 0.4 0 -0.4
v 0.4 0.2 -0.4
v -0.4 0 0.4
v 0.4 0 0.4
v -0.1 0 0.1
v 0.4 0 0.1
v 0.1 0 0
v 0.4 0 0
v 0 0 -0.1
v 0.1 0 -0.1
v -0.4 0 -0.4
v -0.1 0 -0.4
v 0 0 -0.4
v 0.4 0 -0.4
v -0.4 0.2 0.4
v 0.4 0.2 0.4
v 0 0.2 0.1
v 0.4 0.2 0.1
v -0.1 0.2 0
v 0 0.2 0
v 0.1 0.2 0
v 0.4 0.2 0
v 0 0.2 -0.1
v 0.1 0.2 -0.1
v -0.4 0.2 -0.4
v -0.1 0.2 -0.4
v 0 0.2 -0.4
v 0.4 0.2 -0.4

# faces
f 3/3/1 2/3/1 1/3/1
f 4/3/1 2/3/1 3/3/1
f 5/3/2 6/3/2 9/3/2
f 6/1/2 7/1/2 10/1/2
f 9/3/2 6/3/2 10/3/2
f 7/2/2 8/2/2 11/2/2
f 10/1/2 7/1/2 11/1/2
f 11/2/2 8/2/2 12/2/2
f 15/3/3 14/3/3 13/3/3
f 16/3/3 14/3/3 15/3/3
f 17/3/4 18/3/4 19/3/4
f 19/3/4 18/3/4 20/3/4
f 19/1/4 20/1/4 21/1/4
f 21/1/4 20/1/4 22/1/4
f 21/2/4 22/2/4 23/2/4
f 23/2/4 22/2/4 24/2/4
f 27/3/5 26/3/5 25/3/5
f 28/3/5 26/3/5 27/3/5
f 29/1/5 28/1/5 27/1/5
f 30/1/5 28/1/5 29/1/5
f 31/1/5 29/1/5 27/1/5
f 32/2/5 30/2/5 29/2/5
f 32/1/5 29/1/5 31/1/5
f 33/3/5 27/3/5 25/3/5
f 34/1/5 31/1/5 27/1/5
f 34/3/5 27/3/5 33/3/5
f 35/2/5 32/2/5 31/2/5
f 35/1/5 31/1/5 34/1/5
f 36/2/5 30/2/5 32/2/5
f 36/2/5 32/2/5 35/2/5
f 37/3/6 38/3/6 39/3/6
f 39/3/6 38/3/6 40/3/6
f 37/3/6 39/3/6 41/3/6
f 39/1/6 40/1/6 42/1/6
f 41/3/6 39/3/6 42/3/6
f 42/1/6 40/1/6 43/1/6
f 43/1/6 40/1/6 44/1/6
f 41/1/6 42/1/6 45/1/6
f 42/1/6 43/1/6 45/1/6
f 43/2/6 44/2/6 46/2/6
f 45/1/6 43/1/6 46/1/6
f 37/3/6 41/3/6 47/3/6
f 41/1/6 45/1/6 48/1/6
f 47/3/6 41/3/6 48/3/6
f 45/2/6 46/2/6 49/2/6
f 48/1/6 45/1/6 49/1/6
f 46/2/6 44/2/6 50/2/6
f 49/2/6 46/2/6 50/2/6
